<svg width="1651" height="86" viewBox="0 0 1651 86" fill="none" xmlns="http://www.w3.org/2000/svg">
<rect width="1651" height="86" rx="10" fill="white"/>
<g clip-path="url(#clip0_1568_5642)">
<rect x="29" y="33" width="20" height="25" fill="#DBDFF1"/>
<rect x="51" y="31" width="20" height="27" fill="#DBDFF1"/>
<rect x="73" y="30" width="20" height="28" fill="#DBDFF1"/>
<rect x="95" y="27" width="20" height="31" fill="#DBDFF1"/>
<rect x="117" y="27" width="21" height="31" fill="#DBDFF1"/>
<rect x="140" y="34" width="21" height="24" fill="#DBDFF1"/>
<rect x="163" y="27" width="21" height="31" fill="#DBDFF1"/>
<rect x="186" y="20" width="20" height="38" fill="#DBDFF1"/>
<rect x="208" y="22" width="20" height="36" fill="#DBDFF1"/>
<rect x="230" y="27" width="20" height="31" fill="#DBDFF1"/>
<rect x="252" y="27" width="20" height="31" fill="#DBDFF1"/>
<rect x="274" y="20" width="20" height="38" fill="#DBDFF1"/>
<rect x="296" y="27" width="20" height="31" fill="#DBDFF1"/>
<rect x="318" y="34" width="20" height="24" fill="#DBDFF1"/>
<rect x="340" y="44" width="20" height="14" fill="#DBDFF1"/>
<rect x="362" y="39" width="20" height="19" fill="#DBDFF1"/>
<rect x="384" y="40" width="20" height="18" fill="#DBDFF1"/>
<rect x="406" y="44" width="20" height="14" fill="#DBDFF1"/>
<rect x="428" y="44" width="20" height="14" fill="#FF708B"/>
<rect x="450" y="42" width="20" height="16" fill="#FF708B"/>
<rect x="472" y="41" width="20" height="17" fill="#FF708B"/>
<rect x="494" y="39" width="20" height="19" fill="#FF708B"/>
<rect x="516" y="33" width="20" height="25" fill="#FF708B"/>
<rect x="538" y="31" width="20" height="27" fill="#FF708B"/>
<rect x="560" y="30" width="20" height="28" fill="#FF708B"/>
<rect x="582" y="44" width="20" height="14" fill="#FF708B"/>
<rect x="604" y="44" width="21" height="14" fill="#FF708B"/>
<rect x="627" y="44" width="21" height="14" fill="#FF708B"/>
<rect x="650" y="34" width="21" height="24" fill="#FF708B"/>
<rect x="673" y="44" width="21" height="14" fill="#FF708B"/>
<rect x="696" y="40" width="20" height="18" fill="#DBDFF1"/>
<rect x="718" y="41" width="20" height="17" fill="#DBDFF1"/>
<rect x="740" y="44" width="20" height="14" fill="#DBDFF1"/>
<rect x="762" y="44" width="20" height="14" fill="#DBDFF1"/>
<rect x="784" y="40" width="20" height="18" fill="#DBDFF1"/>
<rect x="806" y="44" width="20" height="14" fill="#DBDFF1"/>
<rect x="828" y="34" width="20" height="24" fill="#DBDFF1"/>
<rect x="850" y="44" width="20" height="14" fill="#DBDFF1"/>
<rect x="872" y="39" width="20" height="19" fill="#DBDFF1"/>
<rect x="894" y="40" width="20" height="18" fill="#DBDFF1"/>
<rect x="916" y="44" width="20" height="14" fill="#DBDFF1"/>
<rect x="938" y="44" width="20" height="14" fill="#DBDFF1"/>
<rect x="960" y="42" width="20" height="16" fill="#DBDFF1"/>
<rect x="982" y="41" width="20" height="17" fill="#DBDFF1"/>
<rect x="1004" y="39" width="20" height="19" fill="#DBDFF1"/>
<rect x="1026" y="39" width="20" height="19" fill="#DBDFF1"/>
<rect x="1048" y="33" width="20" height="25" fill="#DBDFF1"/>
<rect x="1070" y="31" width="20" height="27" fill="#DBDFF1"/>
<rect x="1092" y="30" width="20" height="28" fill="#DBDFF1"/>
<rect x="1114" y="27" width="20" height="31" fill="#DBDFF1"/>
<rect x="1136" y="39" width="21" height="19" fill="#DBDFF1"/>
<rect x="1159" y="39" width="21" height="19" fill="#DBDFF1"/>
<rect x="1182" y="45" width="21" height="13" fill="#DBDFF1"/>
<rect x="1205" y="39" width="21" height="19" fill="#DBDFF1"/>
<rect x="1228" y="36" width="20" height="22" fill="#DBDFF1"/>
<rect x="1250" y="37" width="20" height="21" fill="#DBDFF1"/>
<rect x="1272" y="39" width="20" height="19" fill="#DBDFF1"/>
<rect x="1294" y="39" width="20" height="19" fill="#DBDFF1"/>
<rect x="1316" y="36" width="20" height="22" fill="#DBDFF1"/>
<rect x="1338" y="39" width="20" height="19" fill="#DBDFF1"/>
<rect x="1360" y="45" width="20" height="13" fill="#DBDFF1"/>
<rect x="1382" y="39" width="20" height="19" fill="#DBDFF1"/>
<rect x="1404" y="34" width="20" height="24" fill="#DBDFF1"/>
<rect x="1426" y="36" width="20" height="22" fill="#DBDFF1"/>
<rect x="1448" y="36" width="20" height="22" fill="#DBDFF1"/>
<rect x="1470" y="36" width="20" height="22" fill="#DBDFF1"/>
<rect x="1492" y="36" width="20" height="22" fill="#DBDFF1"/>
<rect x="1514" y="39" width="20" height="19" fill="#DBDFF1"/>
<rect x="1536" y="49" width="20" height="9" fill="#DBDFF1"/>
<rect x="1558" y="49" width="20" height="9" fill="#DBDFF1"/>
<rect x="1580" y="48" width="20" height="10" fill="#DBDFF1"/>
<rect x="1602" y="47" width="20" height="11" fill="#DBDFF1"/>
</g>
<rect x="29" y="60" width="1593" height="6" rx="3" fill="#8676FF"/>
<rect x="29" y="60" width="723.94" height="6" rx="3" fill="#FF708B"/>
<rect x="29" y="60" width="240.295" height="6" rx="3" fill="#FFA63F"/>
<defs>
<clipPath id="clip0_1568_5642">
<rect width="1593" height="38" fill="white" transform="translate(29 20)"/>
</clipPath>
</defs>
</svg>
